<mxfile host="app.diagrams.net" modified="2024-02-14T08:11:27.240Z" agent="Mozilla/5.0 (Windows NT 10.0; Win64; x64) AppleWebKit/537.36 (KHTML, like Gecko) Chrome/121.0.0.0 Safari/537.36" version="23.0.2" etag="z3JpjFRQ_0cEITu2nXtC" type="github">
  <diagram name="Page-1" id="59L78dZZT-iYg6Z7JdC0">
    <mxGraphModel>
      <root>
        <mxCell id="0" />
        <mxCell id="1" parent="0" />
      </root>
    </mxGraphModel>
  </diagram>
</mxfile>
